<mxfile host="app.diagrams.net" agent="Mozilla/5.0 (Windows NT 10.0; Win64; x64) AppleWebKit/537.36 (KHTML, like Gecko) Chrome/141.0.0.0 Safari/537.36 Edg/141.0.0.0" version="28.2.7">
  <diagram name="ページ1" id="Hq7mq9DURl0nzRcfe1HW">
    <mxGraphModel dx="1605" dy="1683" grid="1" gridSize="10" guides="1" tooltips="1" connect="1" arrows="1" fold="1" page="1" pageScale="1" pageWidth="827" pageHeight="1169" math="0" shadow="0">
      <root>
        <mxCell id="0" />
        <mxCell id="1" parent="0" />
        <mxCell id="FHi2QEq27pnTeOY9-yR4-7" value="" style="edgeStyle=orthogonalEdgeStyle;rounded=0;orthogonalLoop=1;jettySize=auto;html=1;" edge="1" parent="1" source="FHi2QEq27pnTeOY9-yR4-2" target="FHi2QEq27pnTeOY9-yR4-5">
          <mxGeometry relative="1" as="geometry" />
        </mxCell>
        <mxCell id="FHi2QEq27pnTeOY9-yR4-2" value="School&lt;div&gt;Grounds&lt;/div&gt;" style="rounded=1;whiteSpace=wrap;html=1;arcSize=22;" vertex="1" parent="1">
          <mxGeometry y="270" width="120" height="60" as="geometry" />
        </mxCell>
        <mxCell id="FHi2QEq27pnTeOY9-yR4-3" value="Convenience&amp;nbsp;&lt;div&gt;Store&lt;/div&gt;" style="rounded=1;whiteSpace=wrap;html=1;" vertex="1" parent="1">
          <mxGeometry x="120" y="30" width="120" height="60" as="geometry" />
        </mxCell>
        <mxCell id="FHi2QEq27pnTeOY9-yR4-4" value="Library" style="rounded=1;whiteSpace=wrap;html=1;" vertex="1" parent="1">
          <mxGeometry x="240" y="100" width="120" height="60" as="geometry" />
        </mxCell>
        <mxCell id="FHi2QEq27pnTeOY9-yR4-17" style="edgeStyle=orthogonalEdgeStyle;rounded=0;orthogonalLoop=1;jettySize=auto;html=1;exitX=0.5;exitY=0;exitDx=0;exitDy=0;" edge="1" parent="1" source="FHi2QEq27pnTeOY9-yR4-5" target="FHi2QEq27pnTeOY9-yR4-4">
          <mxGeometry relative="1" as="geometry" />
        </mxCell>
        <mxCell id="FHi2QEq27pnTeOY9-yR4-41" style="edgeStyle=orthogonalEdgeStyle;rounded=0;orthogonalLoop=1;jettySize=auto;html=1;exitX=1;exitY=0.5;exitDx=0;exitDy=0;entryX=0;entryY=0.5;entryDx=0;entryDy=0;" edge="1" parent="1" source="FHi2QEq27pnTeOY9-yR4-5" target="FHi2QEq27pnTeOY9-yR4-40">
          <mxGeometry relative="1" as="geometry" />
        </mxCell>
        <mxCell id="FHi2QEq27pnTeOY9-yR4-5" value="Outlet Mall on a Regular Street" style="rounded=1;whiteSpace=wrap;html=1;" vertex="1" parent="1">
          <mxGeometry x="240" y="200" width="120" height="60" as="geometry" />
        </mxCell>
        <mxCell id="FHi2QEq27pnTeOY9-yR4-9" value="" style="edgeStyle=orthogonalEdgeStyle;rounded=0;orthogonalLoop=1;jettySize=auto;html=1;" edge="1" parent="1" source="FHi2QEq27pnTeOY9-yR4-8" target="FHi2QEq27pnTeOY9-yR4-2">
          <mxGeometry relative="1" as="geometry" />
        </mxCell>
        <mxCell id="FHi2QEq27pnTeOY9-yR4-12" style="edgeStyle=orthogonalEdgeStyle;rounded=0;orthogonalLoop=1;jettySize=auto;html=1;exitX=0.5;exitY=0;exitDx=0;exitDy=0;entryX=1;entryY=1;entryDx=0;entryDy=0;" edge="1" parent="1" source="FHi2QEq27pnTeOY9-yR4-8" target="FHi2QEq27pnTeOY9-yR4-11">
          <mxGeometry relative="1" as="geometry" />
        </mxCell>
        <mxCell id="FHi2QEq27pnTeOY9-yR4-16" style="edgeStyle=orthogonalEdgeStyle;rounded=0;orthogonalLoop=1;jettySize=auto;html=1;exitX=1;exitY=0.5;exitDx=0;exitDy=0;entryX=0;entryY=0.5;entryDx=0;entryDy=0;" edge="1" parent="1" source="FHi2QEq27pnTeOY9-yR4-8" target="FHi2QEq27pnTeOY9-yR4-5">
          <mxGeometry relative="1" as="geometry" />
        </mxCell>
        <mxCell id="FHi2QEq27pnTeOY9-yR4-8" value="Knight&amp;nbsp;&lt;div&gt;School&lt;/div&gt;" style="rounded=1;whiteSpace=wrap;html=1;" vertex="1" parent="1">
          <mxGeometry x="100" y="150" width="120" height="60" as="geometry" />
        </mxCell>
        <mxCell id="FHi2QEq27pnTeOY9-yR4-14" style="edgeStyle=orthogonalEdgeStyle;rounded=0;orthogonalLoop=1;jettySize=auto;html=1;exitX=0.5;exitY=1;exitDx=0;exitDy=0;entryX=0.5;entryY=0;entryDx=0;entryDy=0;" edge="1" parent="1" source="FHi2QEq27pnTeOY9-yR4-11" target="FHi2QEq27pnTeOY9-yR4-13">
          <mxGeometry relative="1" as="geometry" />
        </mxCell>
        <mxCell id="FHi2QEq27pnTeOY9-yR4-11" value="School&amp;nbsp;&lt;div&gt;Dance&lt;/div&gt;" style="rounded=1;whiteSpace=wrap;html=1;" vertex="1" parent="1">
          <mxGeometry x="-30" y="10" width="120" height="60" as="geometry" />
        </mxCell>
        <mxCell id="FHi2QEq27pnTeOY9-yR4-13" value="Field" style="rounded=1;whiteSpace=wrap;html=1;" vertex="1" parent="1">
          <mxGeometry x="-40" y="110" width="120" height="60" as="geometry" />
        </mxCell>
        <mxCell id="FHi2QEq27pnTeOY9-yR4-15" style="edgeStyle=orthogonalEdgeStyle;rounded=0;orthogonalLoop=1;jettySize=auto;html=1;entryX=0.05;entryY=0.883;entryDx=0;entryDy=0;entryPerimeter=0;" edge="1" parent="1" source="FHi2QEq27pnTeOY9-yR4-13" target="FHi2QEq27pnTeOY9-yR4-8">
          <mxGeometry relative="1" as="geometry" />
        </mxCell>
        <mxCell id="FHi2QEq27pnTeOY9-yR4-45" style="edgeStyle=orthogonalEdgeStyle;rounded=0;orthogonalLoop=1;jettySize=auto;html=1;exitX=1;exitY=0.5;exitDx=0;exitDy=0;entryX=0;entryY=0.5;entryDx=0;entryDy=0;" edge="1" parent="1" source="FHi2QEq27pnTeOY9-yR4-20" target="FHi2QEq27pnTeOY9-yR4-34">
          <mxGeometry relative="1" as="geometry" />
        </mxCell>
        <mxCell id="FHi2QEq27pnTeOY9-yR4-20" value="Hunter&amp;nbsp;&lt;div&gt;Camp&lt;/div&gt;" style="rounded=1;whiteSpace=wrap;html=1;" vertex="1" parent="1">
          <mxGeometry x="270" y="360" width="120" height="60" as="geometry" />
        </mxCell>
        <mxCell id="FHi2QEq27pnTeOY9-yR4-74" style="edgeStyle=orthogonalEdgeStyle;rounded=0;orthogonalLoop=1;jettySize=auto;html=1;exitX=0.5;exitY=1;exitDx=0;exitDy=0;entryX=0.5;entryY=0;entryDx=0;entryDy=0;" edge="1" parent="1" source="FHi2QEq27pnTeOY9-yR4-21" target="FHi2QEq27pnTeOY9-yR4-72">
          <mxGeometry relative="1" as="geometry" />
        </mxCell>
        <mxCell id="FHi2QEq27pnTeOY9-yR4-21" value="Church" style="rounded=1;whiteSpace=wrap;html=1;" vertex="1" parent="1">
          <mxGeometry x="520" y="20" width="120" height="60" as="geometry" />
        </mxCell>
        <mxCell id="FHi2QEq27pnTeOY9-yR4-81" style="edgeStyle=orthogonalEdgeStyle;rounded=0;orthogonalLoop=1;jettySize=auto;html=1;exitX=1;exitY=0.5;exitDx=0;exitDy=0;entryX=0;entryY=0.5;entryDx=0;entryDy=0;" edge="1" parent="1" source="FHi2QEq27pnTeOY9-yR4-22" target="FHi2QEq27pnTeOY9-yR4-79">
          <mxGeometry relative="1" as="geometry" />
        </mxCell>
        <mxCell id="FHi2QEq27pnTeOY9-yR4-22" value="Big City&lt;div&gt;&lt;br&gt;&lt;/div&gt;&lt;div&gt;(Giants Alley)&lt;/div&gt;" style="rounded=1;whiteSpace=wrap;html=1;" vertex="1" parent="1">
          <mxGeometry x="700" y="-100" width="120" height="60" as="geometry" />
        </mxCell>
        <mxCell id="FHi2QEq27pnTeOY9-yR4-57" style="edgeStyle=orthogonalEdgeStyle;rounded=0;orthogonalLoop=1;jettySize=auto;html=1;exitX=1;exitY=0.5;exitDx=0;exitDy=0;entryX=0;entryY=0.5;entryDx=0;entryDy=0;" edge="1" parent="1" source="FHi2QEq27pnTeOY9-yR4-23" target="FHi2QEq27pnTeOY9-yR4-26">
          <mxGeometry relative="1" as="geometry" />
        </mxCell>
        <mxCell id="FHi2QEq27pnTeOY9-yR4-23" value="Water&lt;div&gt;Park&lt;/div&gt;" style="rounded=1;whiteSpace=wrap;html=1;" vertex="1" parent="1">
          <mxGeometry x="860" y="480" width="120" height="60" as="geometry" />
        </mxCell>
        <mxCell id="FHi2QEq27pnTeOY9-yR4-53" style="edgeStyle=orthogonalEdgeStyle;rounded=0;orthogonalLoop=1;jettySize=auto;html=1;exitX=0.5;exitY=0;exitDx=0;exitDy=0;entryX=0.5;entryY=1;entryDx=0;entryDy=0;" edge="1" parent="1" source="FHi2QEq27pnTeOY9-yR4-24" target="FHi2QEq27pnTeOY9-yR4-23">
          <mxGeometry relative="1" as="geometry" />
        </mxCell>
        <mxCell id="FHi2QEq27pnTeOY9-yR4-54" style="edgeStyle=orthogonalEdgeStyle;rounded=0;orthogonalLoop=1;jettySize=auto;html=1;exitX=0.75;exitY=0;exitDx=0;exitDy=0;entryX=0;entryY=0.5;entryDx=0;entryDy=0;" edge="1" parent="1" source="FHi2QEq27pnTeOY9-yR4-24" target="FHi2QEq27pnTeOY9-yR4-25">
          <mxGeometry relative="1" as="geometry" />
        </mxCell>
        <mxCell id="FHi2QEq27pnTeOY9-yR4-24" value="Pier" style="rounded=1;whiteSpace=wrap;html=1;" vertex="1" parent="1">
          <mxGeometry x="610" y="650" width="120" height="60" as="geometry" />
        </mxCell>
        <mxCell id="FHi2QEq27pnTeOY9-yR4-55" style="edgeStyle=orthogonalEdgeStyle;rounded=0;orthogonalLoop=1;jettySize=auto;html=1;exitX=0.25;exitY=0;exitDx=0;exitDy=0;entryX=0.75;entryY=1;entryDx=0;entryDy=0;" edge="1" parent="1" source="FHi2QEq27pnTeOY9-yR4-25" target="FHi2QEq27pnTeOY9-yR4-23">
          <mxGeometry relative="1" as="geometry" />
        </mxCell>
        <mxCell id="FHi2QEq27pnTeOY9-yR4-25" value="Amusement&lt;div&gt;Park&lt;/div&gt;" style="rounded=1;whiteSpace=wrap;html=1;" vertex="1" parent="1">
          <mxGeometry x="930" y="570" width="120" height="60" as="geometry" />
        </mxCell>
        <mxCell id="FHi2QEq27pnTeOY9-yR4-58" style="edgeStyle=orthogonalEdgeStyle;rounded=0;orthogonalLoop=1;jettySize=auto;html=1;exitX=0.25;exitY=0;exitDx=0;exitDy=0;entryX=0.75;entryY=1;entryDx=0;entryDy=0;" edge="1" parent="1" source="FHi2QEq27pnTeOY9-yR4-26" target="FHi2QEq27pnTeOY9-yR4-27">
          <mxGeometry relative="1" as="geometry" />
        </mxCell>
        <mxCell id="FHi2QEq27pnTeOY9-yR4-26" value="Waterfall" style="rounded=1;whiteSpace=wrap;html=1;" vertex="1" parent="1">
          <mxGeometry x="1000" y="470" width="120" height="60" as="geometry" />
        </mxCell>
        <mxCell id="FHi2QEq27pnTeOY9-yR4-50" style="edgeStyle=orthogonalEdgeStyle;rounded=0;orthogonalLoop=1;jettySize=auto;html=1;exitX=0;exitY=0.5;exitDx=0;exitDy=0;" edge="1" parent="1" source="FHi2QEq27pnTeOY9-yR4-27" target="FHi2QEq27pnTeOY9-yR4-23">
          <mxGeometry relative="1" as="geometry" />
        </mxCell>
        <mxCell id="FHi2QEq27pnTeOY9-yR4-70" style="edgeStyle=orthogonalEdgeStyle;rounded=0;orthogonalLoop=1;jettySize=auto;html=1;exitX=0;exitY=0.25;exitDx=0;exitDy=0;entryX=1;entryY=0;entryDx=0;entryDy=0;" edge="1" parent="1" source="FHi2QEq27pnTeOY9-yR4-27" target="FHi2QEq27pnTeOY9-yR4-68">
          <mxGeometry relative="1" as="geometry">
            <Array as="points">
              <mxPoint x="830" y="385" />
              <mxPoint x="830" y="490" />
            </Array>
          </mxGeometry>
        </mxCell>
        <mxCell id="FHi2QEq27pnTeOY9-yR4-27" value="Aquarium" style="rounded=1;whiteSpace=wrap;html=1;" vertex="1" parent="1">
          <mxGeometry x="960" y="370" width="120" height="60" as="geometry" />
        </mxCell>
        <mxCell id="FHi2QEq27pnTeOY9-yR4-29" value="Suburbs" style="rounded=1;whiteSpace=wrap;html=1;" vertex="1" parent="1">
          <mxGeometry x="1020" y="90" width="120" height="60" as="geometry" />
        </mxCell>
        <mxCell id="FHi2QEq27pnTeOY9-yR4-30" value="Nipponland" style="rounded=1;whiteSpace=wrap;html=1;" vertex="1" parent="1">
          <mxGeometry x="940" y="645" width="120" height="60" as="geometry" />
        </mxCell>
        <mxCell id="FHi2QEq27pnTeOY9-yR4-31" value="Diner" style="rounded=1;whiteSpace=wrap;html=1;" vertex="1" parent="1">
          <mxGeometry x="270" width="120" height="60" as="geometry" />
        </mxCell>
        <mxCell id="FHi2QEq27pnTeOY9-yR4-64" style="edgeStyle=orthogonalEdgeStyle;rounded=0;orthogonalLoop=1;jettySize=auto;html=1;exitX=0.75;exitY=0;exitDx=0;exitDy=0;entryX=0.5;entryY=1;entryDx=0;entryDy=0;" edge="1" parent="1" source="FHi2QEq27pnTeOY9-yR4-32" target="FHi2QEq27pnTeOY9-yR4-63">
          <mxGeometry relative="1" as="geometry" />
        </mxCell>
        <mxCell id="FHi2QEq27pnTeOY9-yR4-67" style="edgeStyle=orthogonalEdgeStyle;rounded=0;orthogonalLoop=1;jettySize=auto;html=1;exitX=1;exitY=0.5;exitDx=0;exitDy=0;" edge="1" parent="1" source="FHi2QEq27pnTeOY9-yR4-32" target="FHi2QEq27pnTeOY9-yR4-35">
          <mxGeometry relative="1" as="geometry">
            <Array as="points">
              <mxPoint x="730" y="330" />
              <mxPoint x="1020" y="330" />
            </Array>
          </mxGeometry>
        </mxCell>
        <mxCell id="FHi2QEq27pnTeOY9-yR4-32" value="Arcade" style="rounded=1;whiteSpace=wrap;html=1;" vertex="1" parent="1">
          <mxGeometry x="750" y="310" width="120" height="60" as="geometry" />
        </mxCell>
        <mxCell id="FHi2QEq27pnTeOY9-yR4-34" value="Treetop&amp;nbsp;&lt;div&gt;Skatepark&lt;/div&gt;" style="rounded=1;whiteSpace=wrap;html=1;" vertex="1" parent="1">
          <mxGeometry x="414" y="360" width="120" height="60" as="geometry" />
        </mxCell>
        <mxCell id="FHi2QEq27pnTeOY9-yR4-35" value="Digital World" style="rounded=1;whiteSpace=wrap;html=1;" vertex="1" parent="1">
          <mxGeometry x="960" y="220" width="120" height="60" as="geometry" />
        </mxCell>
        <mxCell id="FHi2QEq27pnTeOY9-yR4-52" style="edgeStyle=orthogonalEdgeStyle;rounded=0;orthogonalLoop=1;jettySize=auto;html=1;exitX=0.5;exitY=1;exitDx=0;exitDy=0;entryX=0.5;entryY=0;entryDx=0;entryDy=0;" edge="1" parent="1" source="FHi2QEq27pnTeOY9-yR4-39" target="FHi2QEq27pnTeOY9-yR4-47">
          <mxGeometry relative="1" as="geometry" />
        </mxCell>
        <mxCell id="FHi2QEq27pnTeOY9-yR4-59" style="edgeStyle=orthogonalEdgeStyle;rounded=0;orthogonalLoop=1;jettySize=auto;html=1;exitX=1;exitY=0.5;exitDx=0;exitDy=0;" edge="1" parent="1" source="FHi2QEq27pnTeOY9-yR4-39" target="FHi2QEq27pnTeOY9-yR4-60">
          <mxGeometry relative="1" as="geometry">
            <mxPoint x="620" y="510" as="targetPoint" />
            <Array as="points">
              <mxPoint x="330" y="470" />
              <mxPoint x="620" y="470" />
            </Array>
          </mxGeometry>
        </mxCell>
        <mxCell id="FHi2QEq27pnTeOY9-yR4-39" value="Grind Mines" style="rounded=1;whiteSpace=wrap;html=1;" vertex="1" parent="1">
          <mxGeometry x="210" y="480" width="120" height="60" as="geometry" />
        </mxCell>
        <mxCell id="FHi2QEq27pnTeOY9-yR4-42" style="edgeStyle=orthogonalEdgeStyle;rounded=0;orthogonalLoop=1;jettySize=auto;html=1;exitX=0.5;exitY=1;exitDx=0;exitDy=0;entryX=0.5;entryY=0;entryDx=0;entryDy=0;" edge="1" parent="1" source="FHi2QEq27pnTeOY9-yR4-40" target="FHi2QEq27pnTeOY9-yR4-20">
          <mxGeometry relative="1" as="geometry" />
        </mxCell>
        <mxCell id="FHi2QEq27pnTeOY9-yR4-43" style="edgeStyle=orthogonalEdgeStyle;rounded=0;orthogonalLoop=1;jettySize=auto;html=1;exitX=1;exitY=1;exitDx=0;exitDy=0;entryX=0.95;entryY=0.05;entryDx=0;entryDy=0;entryPerimeter=0;" edge="1" parent="1" source="FHi2QEq27pnTeOY9-yR4-40" target="FHi2QEq27pnTeOY9-yR4-34">
          <mxGeometry relative="1" as="geometry" />
        </mxCell>
        <mxCell id="FHi2QEq27pnTeOY9-yR4-40" value="Lost Park (With Lots of Construction)" style="rounded=1;whiteSpace=wrap;html=1;" vertex="1" parent="1">
          <mxGeometry x="390" y="200" width="120" height="60" as="geometry" />
        </mxCell>
        <mxCell id="FHi2QEq27pnTeOY9-yR4-46" style="edgeStyle=orthogonalEdgeStyle;rounded=0;orthogonalLoop=1;jettySize=auto;html=1;exitX=0.5;exitY=1;exitDx=0;exitDy=0;entryX=0.683;entryY=0.067;entryDx=0;entryDy=0;entryPerimeter=0;" edge="1" parent="1" source="FHi2QEq27pnTeOY9-yR4-34" target="FHi2QEq27pnTeOY9-yR4-39">
          <mxGeometry relative="1" as="geometry" />
        </mxCell>
        <mxCell id="FHi2QEq27pnTeOY9-yR4-51" style="edgeStyle=orthogonalEdgeStyle;rounded=0;orthogonalLoop=1;jettySize=auto;html=1;exitX=1;exitY=0.5;exitDx=0;exitDy=0;" edge="1" parent="1" source="FHi2QEq27pnTeOY9-yR4-47" target="FHi2QEq27pnTeOY9-yR4-24">
          <mxGeometry relative="1" as="geometry" />
        </mxCell>
        <mxCell id="FHi2QEq27pnTeOY9-yR4-47" value="Sewers" style="rounded=1;whiteSpace=wrap;html=1;" vertex="1" parent="1">
          <mxGeometry x="300" y="670" width="120" height="60" as="geometry" />
        </mxCell>
        <mxCell id="FHi2QEq27pnTeOY9-yR4-56" style="edgeStyle=orthogonalEdgeStyle;rounded=0;orthogonalLoop=1;jettySize=auto;html=1;exitX=1;exitY=0.5;exitDx=0;exitDy=0;entryX=0.008;entryY=0.617;entryDx=0;entryDy=0;entryPerimeter=0;" edge="1" parent="1" source="FHi2QEq27pnTeOY9-yR4-24" target="FHi2QEq27pnTeOY9-yR4-30">
          <mxGeometry relative="1" as="geometry" />
        </mxCell>
        <mxCell id="FHi2QEq27pnTeOY9-yR4-61" style="edgeStyle=orthogonalEdgeStyle;rounded=0;orthogonalLoop=1;jettySize=auto;html=1;exitX=1;exitY=0;exitDx=0;exitDy=0;entryX=0.5;entryY=1;entryDx=0;entryDy=0;" edge="1" parent="1" source="FHi2QEq27pnTeOY9-yR4-60" target="FHi2QEq27pnTeOY9-yR4-32">
          <mxGeometry relative="1" as="geometry" />
        </mxCell>
        <mxCell id="FHi2QEq27pnTeOY9-yR4-69" style="edgeStyle=orthogonalEdgeStyle;rounded=0;orthogonalLoop=1;jettySize=auto;html=1;exitX=1;exitY=0.5;exitDx=0;exitDy=0;entryX=0;entryY=0.5;entryDx=0;entryDy=0;" edge="1" parent="1" source="FHi2QEq27pnTeOY9-yR4-28" target="FHi2QEq27pnTeOY9-yR4-68">
          <mxGeometry relative="1" as="geometry" />
        </mxCell>
        <mxCell id="FHi2QEq27pnTeOY9-yR4-71" style="edgeStyle=orthogonalEdgeStyle;rounded=0;orthogonalLoop=1;jettySize=auto;html=1;exitX=0.5;exitY=1;exitDx=0;exitDy=0;entryX=1;entryY=0;entryDx=0;entryDy=0;" edge="1" parent="1" source="FHi2QEq27pnTeOY9-yR4-60" target="FHi2QEq27pnTeOY9-yR4-47">
          <mxGeometry relative="1" as="geometry">
            <Array as="points">
              <mxPoint x="620" y="480" />
              <mxPoint x="420" y="480" />
            </Array>
          </mxGeometry>
        </mxCell>
        <mxCell id="FHi2QEq27pnTeOY9-yR4-60" value="Mallcano" style="rounded=1;whiteSpace=wrap;html=1;" vertex="1" parent="1">
          <mxGeometry x="560" y="360" width="120" height="60" as="geometry" />
        </mxCell>
        <mxCell id="FHi2QEq27pnTeOY9-yR4-63" value="Junkyard" style="rounded=1;whiteSpace=wrap;html=1;" vertex="1" parent="1">
          <mxGeometry x="827" y="160" width="120" height="60" as="geometry" />
        </mxCell>
        <mxCell id="FHi2QEq27pnTeOY9-yR4-65" value="Used Car Dealership" style="rounded=1;whiteSpace=wrap;html=1;" vertex="1" parent="1">
          <mxGeometry x="880" y="10" width="120" height="60" as="geometry" />
        </mxCell>
        <mxCell id="FHi2QEq27pnTeOY9-yR4-66" style="edgeStyle=orthogonalEdgeStyle;rounded=0;orthogonalLoop=1;jettySize=auto;html=1;exitX=0.5;exitY=0;exitDx=0;exitDy=0;entryX=0.492;entryY=1.117;entryDx=0;entryDy=0;entryPerimeter=0;" edge="1" parent="1" source="FHi2QEq27pnTeOY9-yR4-63" target="FHi2QEq27pnTeOY9-yR4-65">
          <mxGeometry relative="1" as="geometry" />
        </mxCell>
        <mxCell id="FHi2QEq27pnTeOY9-yR4-68" value="Restaurants" style="rounded=1;whiteSpace=wrap;html=1;" vertex="1" parent="1">
          <mxGeometry x="700" y="459" width="120" height="60" as="geometry" />
        </mxCell>
        <mxCell id="FHi2QEq27pnTeOY9-yR4-73" style="edgeStyle=orthogonalEdgeStyle;rounded=0;orthogonalLoop=1;jettySize=auto;html=1;exitX=0.5;exitY=1;exitDx=0;exitDy=0;" edge="1" parent="1" source="FHi2QEq27pnTeOY9-yR4-72" target="FHi2QEq27pnTeOY9-yR4-60">
          <mxGeometry relative="1" as="geometry">
            <Array as="points">
              <mxPoint x="580" y="310" />
              <mxPoint x="580" y="310" />
            </Array>
          </mxGeometry>
        </mxCell>
        <mxCell id="FHi2QEq27pnTeOY9-yR4-76" style="edgeStyle=orthogonalEdgeStyle;rounded=0;orthogonalLoop=1;jettySize=auto;html=1;exitX=1;exitY=0.5;exitDx=0;exitDy=0;entryX=0;entryY=0.5;entryDx=0;entryDy=0;" edge="1" parent="1" source="FHi2QEq27pnTeOY9-yR4-72" target="FHi2QEq27pnTeOY9-yR4-75">
          <mxGeometry relative="1" as="geometry" />
        </mxCell>
        <mxCell id="FHi2QEq27pnTeOY9-yR4-72" value="Mountain Top" style="rounded=1;whiteSpace=wrap;html=1;" vertex="1" parent="1">
          <mxGeometry x="520" y="140" width="120" height="60" as="geometry" />
        </mxCell>
        <mxCell id="FHi2QEq27pnTeOY9-yR4-77" style="edgeStyle=orthogonalEdgeStyle;rounded=0;orthogonalLoop=1;jettySize=auto;html=1;exitX=1;exitY=0.5;exitDx=0;exitDy=0;entryX=0;entryY=0.5;entryDx=0;entryDy=0;" edge="1" parent="1" source="FHi2QEq27pnTeOY9-yR4-75" target="FHi2QEq27pnTeOY9-yR4-65">
          <mxGeometry relative="1" as="geometry" />
        </mxCell>
        <mxCell id="FHi2QEq27pnTeOY9-yR4-75" value="Look Out Point" style="rounded=1;whiteSpace=wrap;html=1;" vertex="1" parent="1">
          <mxGeometry x="690" y="70" width="120" height="60" as="geometry" />
        </mxCell>
        <mxCell id="FHi2QEq27pnTeOY9-yR4-78" style="edgeStyle=orthogonalEdgeStyle;rounded=0;orthogonalLoop=1;jettySize=auto;html=1;exitX=0.5;exitY=0;exitDx=0;exitDy=0;entryX=0.45;entryY=0.95;entryDx=0;entryDy=0;entryPerimeter=0;" edge="1" parent="1" source="FHi2QEq27pnTeOY9-yR4-75" target="FHi2QEq27pnTeOY9-yR4-22">
          <mxGeometry relative="1" as="geometry" />
        </mxCell>
        <mxCell id="FHi2QEq27pnTeOY9-yR4-79" value="Bouncy Castle In The Sky" style="rounded=1;whiteSpace=wrap;html=1;" vertex="1" parent="1">
          <mxGeometry x="910" y="-180" width="120" height="60" as="geometry" />
        </mxCell>
        <mxCell id="FHi2QEq27pnTeOY9-yR4-82" value="" style="edgeStyle=orthogonalEdgeStyle;rounded=0;orthogonalLoop=1;jettySize=auto;html=1;exitX=1;exitY=0.5;exitDx=0;exitDy=0;entryX=0;entryY=0.5;entryDx=0;entryDy=0;" edge="1" parent="1" source="FHi2QEq27pnTeOY9-yR4-60" target="FHi2QEq27pnTeOY9-yR4-28">
          <mxGeometry relative="1" as="geometry">
            <mxPoint x="630" y="470" as="sourcePoint" />
            <mxPoint x="690" y="520" as="targetPoint" />
            <Array as="points">
              <mxPoint x="680" y="470" />
              <mxPoint x="620" y="470" />
              <mxPoint x="620" y="520" />
              <mxPoint x="640" y="520" />
              <mxPoint x="640" y="555" />
              <mxPoint x="510" y="555" />
            </Array>
          </mxGeometry>
        </mxCell>
        <mxCell id="FHi2QEq27pnTeOY9-yR4-28" value="Fast Food Joint" style="rounded=1;whiteSpace=wrap;html=1;" vertex="1" parent="1">
          <mxGeometry x="550" y="525" width="120" height="60" as="geometry" />
        </mxCell>
      </root>
    </mxGraphModel>
  </diagram>
</mxfile>
